<?xml version="1.0" encoding="UTF-8" standalone="no"?><!DOCTYPE svg PUBLIC "-//W3C//DTD SVG 1.1//EN" "http://www.w3.org/Graphics/SVG/1.1/DTD/svg11.dtd"><svg width="100%" height="100%" viewBox="0 0 77 69" version="1.1" xmlns="http://www.w3.org/2000/svg" xmlns:xlink="http://www.w3.org/1999/xlink" xml:space="preserve" xmlns:serif="http://www.serif.com/" style="fill-rule:evenodd;clip-rule:evenodd;stroke-linejoin:round;stroke-miterlimit:1.41421;"><path id="Logo" d="M22.073,0c-2.066,0.004 -4.088,1.18 -5.128,2.974l-16.177,28.177c-1.024,1.798 -1.024,4.15 0,5.948l16.177,28.177c1.04,1.794 3.062,2.97 5.128,2.974l32.354,0c2.066,-0.004 4.088,-1.18 5.128,-2.974l16.177,-28.177c1.024,-1.798 1.024,-4.15 0,-5.948l-16.177,-28.177c-1.04,-1.794 -3.062,-2.97 -5.128,-2.974l-32.354,0Zm0.294,16.484c0.044,-0.005 0.091,-0.005 0.136,0l5.58,0c0.247,0.005 0.487,0.148 0.61,0.363l9.467,16.915c0.047,0.083 0.078,0.177 0.09,0.272c0.011,-0.095 0.042,-0.189 0.09,-0.272l9.444,-16.915c0.127,-0.222 0.378,-0.366 0.632,-0.363l5.581,0c0.494,0.004 0.864,0.628 0.632,1.067l-9.24,16.574l9.24,16.552c0.254,0.441 -0.125,1.094 -0.632,1.089l-5.581,0c-0.259,-0.002 -0.511,-0.156 -0.632,-0.386l-9.444,-16.914c-0.048,-0.084 -0.079,-0.177 -0.09,-0.273c-0.012,0.096 -0.043,0.189 -0.09,0.273l-9.467,16.914c-0.118,0.224 -0.359,0.376 -0.61,0.386l-5.58,0c-0.507,0.005 -0.886,-0.648 -0.633,-1.089l9.241,-16.552l-9.241,-16.574c-0.221,-0.401 0.049,-0.982 0.497,-1.067Z" style="fill:#3498db;"/></svg>